<svg width="50" height="52" viewBox="0 0 50 52" fill="none" xmlns="http://www.w3.org/2000/svg">
<rect y="1" width="50" height="50" fill="#020F40"/>
<path d="M25.0557 46.486C20.5557 46.486 17.0457 45.478 14.5257 43.462C12.0057 41.446 10.5657 38.494 10.2057 34.606L16.7937 33.634C17.4417 38.242 20.3037 40.546 25.3797 40.546C27.5757 40.546 29.2857 40.114 30.5097 39.25C31.7337 38.35 32.3457 37.108 32.3457 35.524C32.3457 34.084 31.7337 33.004 30.5097 32.284C29.2857 31.528 27.3237 30.826 24.6237 30.178C22.1037 29.566 19.9437 28.846 18.1437 28.018C16.3437 27.154 14.9577 26.002 13.9857 24.562C13.0497 23.122 12.5817 21.214 12.5817 18.838C12.5817 16.57 13.1577 14.554 14.3097 12.79C15.4977 11.026 17.1177 9.64 19.1697 8.632C21.2217 7.624 23.5977 7.12 26.2977 7.12C29.8617 7.12 32.7777 8.056 35.0457 9.928C37.3137 11.8 38.6457 14.374 39.0417 17.65L32.8857 18.676C32.1297 14.932 29.8257 13.06 25.9737 13.06C24.1017 13.06 22.5717 13.546 21.3837 14.518C20.2317 15.49 19.6557 16.768 19.6557 18.352C19.6557 19.936 20.2317 21.16 21.3837 22.024C22.5357 22.852 24.4977 23.59 27.2697 24.238C29.7537 24.814 31.8957 25.498 33.6957 26.29C35.4957 27.046 36.8817 28.108 37.8537 29.476C38.8617 30.844 39.3657 32.716 39.3657 35.092C39.3657 37.324 38.7537 39.304 37.5297 41.032C36.3417 42.724 34.6677 44.056 32.5077 45.028C30.3837 46 27.8997 46.486 25.0557 46.486Z" fill="white"/>
</svg>
