<svg width="1057" height="157" viewBox="0 0 1057 157" fill="none" xmlns="http://www.w3.org/2000/svg">
<g clip-path="url(#clip0_4_2)">
<rect x="15" y="19" width="397" height="120" fill="#020F40"/>
<path d="M436.749 115V46.84H449.229V115H436.749ZM517.712 46.84H529.712V115H518.768L484.88 67.48V115H472.88V46.84H483.824L517.712 94.36V46.84ZM553.355 115V46.84H573.611C586.859 46.84 596.875 49.688 603.659 55.384C610.443 61.08 613.835 69.496 613.835 80.632C613.835 87.544 612.331 93.592 609.323 98.776C606.315 103.896 602.059 107.896 596.555 110.776C591.051 113.592 584.587 115 577.163 115H553.355ZM565.835 103.96H576.683C584.683 103.96 590.763 102.04 594.923 98.2C599.083 94.296 601.163 88.6 601.163 81.112C601.163 73.304 599.019 67.48 594.731 63.64C590.507 59.8 584.011 57.88 575.243 57.88H565.835V103.96ZM634.767 115V46.84H647.247V115H634.767ZM728.691 101.752C726.003 106.296 722.291 109.784 717.555 112.216C712.819 114.648 707.507 115.864 701.619 115.864C694.643 115.864 688.659 114.52 683.667 111.832C678.675 109.144 674.835 105.304 672.147 100.312C669.523 95.256 668.211 89.24 668.211 82.264C668.211 75.032 669.683 68.696 672.627 63.256C675.571 57.816 679.667 53.56 684.915 50.488C690.163 47.416 696.243 45.88 703.155 45.88C709.043 45.88 714.067 47 718.227 49.24C722.451 51.48 725.971 54.872 728.787 59.416L719.187 66.328C717.459 63.128 715.187 60.792 712.371 59.32C709.555 57.848 706.451 57.112 703.059 57.112C698.707 57.112 694.867 58.168 691.539 60.28C688.211 62.392 685.587 65.336 683.667 69.112C681.811 72.824 680.883 77.144 680.883 82.072C680.883 89.176 682.707 94.712 686.355 98.68C690.067 102.648 695.219 104.632 701.811 104.632C705.459 104.632 708.819 103.8 711.891 102.136C714.963 100.472 717.459 97.944 719.379 94.552L728.691 101.752ZM736.374 115L765.462 46.84H776.022L803.958 115H791.286L785.142 99.448H755.382L749.046 115H736.374ZM759.702 88.984H781.11L770.55 62.2L759.702 88.984ZM862.257 46.84L860.721 57.784H839.601V115H827.121V57.784H805.233V46.84H862.257ZM903.191 115.864C896.279 115.928 890.359 114.648 885.431 112.024C880.503 109.336 876.727 105.464 874.103 100.408C871.479 95.352 870.167 89.272 870.167 82.168C870.167 75.064 871.575 68.792 874.391 63.352C877.207 57.848 881.175 53.56 886.295 50.488C891.479 47.416 897.591 45.88 904.631 45.88C910.903 45.88 916.407 47.288 921.143 50.104C925.879 52.92 929.559 56.856 932.183 61.912C934.807 66.904 936.119 72.792 936.119 79.576C936.119 86.936 934.679 93.336 931.799 98.776C928.983 104.152 925.079 108.344 920.087 111.352C915.159 114.36 909.527 115.864 903.191 115.864ZM902.807 104.632C906.839 104.632 910.391 103.64 913.463 101.656C916.599 99.672 919.031 96.824 920.759 93.112C922.551 89.4 923.447 84.888 923.447 79.576C923.447 72.728 921.719 67.256 918.263 63.16C914.807 59.064 910.167 57.016 904.343 57.016C900.183 57.016 896.471 58.072 893.207 60.184C890.007 62.296 887.479 65.208 885.623 68.92C883.767 72.632 882.839 76.984 882.839 81.976C882.839 89.208 884.599 94.808 888.119 98.776C891.703 102.68 896.599 104.632 902.807 104.632ZM1010.94 103.096L1013.82 112.792C1012.54 113.752 1010.97 114.488 1009.11 115C1007.26 115.576 1005.3 115.864 1003.26 115.864C996.088 115.864 990.456 112.696 986.36 106.36L976.472 91.192C975.448 89.592 974.392 88.472 973.304 87.832C972.216 87.192 971.032 86.872 969.752 86.872H969.272V115H957.08V46.84H978.296C986.936 46.84 993.464 48.632 997.88 52.216C1002.36 55.8 1004.6 60.728 1004.6 67C1004.6 70.776 1003.77 74.04 1002.1 76.792C1000.44 79.48 998.168 81.624 995.288 83.224C992.408 84.824 989.144 85.848 985.496 86.296C987.416 87.32 989.176 89.048 990.776 91.48L996.152 99.448C997.56 101.496 998.872 102.904 1000.09 103.672C1001.37 104.44 1002.97 104.824 1004.89 104.824C1007.13 104.824 1009.14 104.248 1010.94 103.096ZM977.432 57.016H969.272V77.08H976.856C982.104 77.08 985.976 76.28 988.472 74.68C990.968 73.08 992.216 70.52 992.216 67C992.216 60.344 987.288 57.016 977.432 57.016Z" fill="#020F40"/>
<path d="M69.4459 115.864C61.4459 115.864 55.2059 114.072 50.7259 110.488C46.2459 106.904 43.6859 101.656 43.0459 94.744L54.7579 93.016C55.9099 101.208 60.9979 105.304 70.0219 105.304C73.9259 105.304 76.9659 104.536 79.1419 103C81.3179 101.4 82.4059 99.192 82.4059 96.376C82.4059 93.816 81.3179 91.896 79.1419 90.616C76.9659 89.272 73.4779 88.024 68.6779 86.872C64.1979 85.784 60.3579 84.504 57.1579 83.032C53.9579 81.496 51.4939 79.448 49.7659 76.888C48.1019 74.328 47.2699 70.936 47.2699 66.712C47.2699 62.68 48.2939 59.096 50.3419 55.96C52.4539 52.824 55.3339 50.36 58.9819 48.568C62.6299 46.776 66.8539 45.88 71.6539 45.88C77.9899 45.88 83.1739 47.544 87.2059 50.872C91.2379 54.2 93.6059 58.776 94.3099 64.6L83.3659 66.424C82.0219 59.768 77.9259 56.44 71.0779 56.44C67.7499 56.44 65.0299 57.304 62.9179 59.032C60.8699 60.76 59.8459 63.032 59.8459 65.848C59.8459 68.664 60.8699 70.84 62.9179 72.376C64.9659 73.848 68.4539 75.16 73.3819 76.312C77.7979 77.336 81.6059 78.552 84.8059 79.96C88.0059 81.304 90.4699 83.192 92.1979 85.624C93.9899 88.056 94.8859 91.384 94.8859 95.608C94.8859 99.576 93.7979 103.096 91.6219 106.168C89.5099 109.176 86.5339 111.544 82.6939 113.272C78.9179 115 74.5019 115.864 69.4459 115.864ZM162.77 46.84L161.234 57.784H140.114V115H127.634V57.784H105.746V46.84H162.77ZM203.703 115.864C196.791 115.928 190.871 114.648 185.943 112.024C181.015 109.336 177.239 105.464 174.615 100.408C171.991 95.352 170.679 89.272 170.679 82.168C170.679 75.064 172.087 68.792 174.903 63.352C177.719 57.848 181.687 53.56 186.807 50.488C191.991 47.416 198.103 45.88 205.143 45.88C211.415 45.88 216.919 47.288 221.655 50.104C226.391 52.92 230.071 56.856 232.695 61.912C235.319 66.904 236.631 72.792 236.631 79.576C236.631 86.936 235.191 93.336 232.311 98.776C229.495 104.152 225.591 108.344 220.599 111.352C215.671 114.36 210.039 115.864 203.703 115.864ZM203.319 104.632C207.351 104.632 210.903 103.64 213.975 101.656C217.111 99.672 219.543 96.824 221.271 93.112C223.063 89.4 223.959 84.888 223.959 79.576C223.959 72.728 222.231 67.256 218.775 63.16C215.319 59.064 210.679 57.016 204.855 57.016C200.695 57.016 196.983 58.072 193.719 60.184C190.519 62.296 187.991 65.208 186.135 68.92C184.279 72.632 183.351 76.984 183.351 81.976C183.351 89.208 185.111 94.808 188.631 98.776C192.215 102.68 197.111 104.632 203.319 104.632ZM315.384 101.752C312.696 106.296 308.984 109.784 304.248 112.216C299.512 114.648 294.2 115.864 288.312 115.864C281.336 115.864 275.352 114.52 270.36 111.832C265.368 109.144 261.528 105.304 258.84 100.312C256.216 95.256 254.904 89.24 254.904 82.264C254.904 75.032 256.376 68.696 259.32 63.256C262.264 57.816 266.36 53.56 271.608 50.488C276.856 47.416 282.936 45.88 289.848 45.88C295.736 45.88 300.76 47 304.92 49.24C309.144 51.48 312.664 54.872 315.48 59.416L305.88 66.328C304.152 63.128 301.88 60.792 299.064 59.32C296.248 57.848 293.144 57.112 289.752 57.112C285.4 57.112 281.56 58.168 278.232 60.28C274.904 62.392 272.28 65.336 270.36 69.112C268.504 72.824 267.576 77.144 267.576 82.072C267.576 89.176 269.4 94.712 273.048 98.68C276.76 102.648 281.912 104.632 288.504 104.632C292.152 104.632 295.512 103.8 298.584 102.136C301.656 100.472 304.152 97.944 306.072 94.552L315.384 101.752ZM331.317 115V46.84H343.797V77.272L372.117 46.84H387.285L355.221 80.824C357.909 82.232 360.213 84.472 362.133 87.544L369.813 99.448C371.157 101.496 372.469 102.904 373.749 103.672C375.029 104.44 376.629 104.824 378.549 104.824C380.853 104.824 382.869 104.248 384.597 103.096L387.477 112.792C386.261 113.752 384.693 114.488 382.773 115C380.917 115.576 378.965 115.864 376.917 115.864C369.685 115.864 364.053 112.696 360.021 106.36L350.133 91.192C349.237 89.848 348.309 88.824 347.349 88.12C346.453 87.352 345.269 86.808 343.797 86.488V115H331.317Z" fill="white"/>
<rect x="422" y="19" width="610" height="8" fill="#020F40"/>
<rect x="422" y="131" width="610" height="8" fill="#020F40"/>
</g>
<defs>
<clipPath id="clip0_4_2">
<rect width="1057" height="157" fill="white"/>
</clipPath>
</defs>
</svg>
